<?xml version="1.0" standalone="no"?>
<!DOCTYPE svg PUBLIC "-//W3C//DTD SVG 20010904//EN"
 "http://www.w3.org/TR/2001/REC-SVG-20010904/DTD/svg10.dtd">
<svg version="1.0" xmlns="http://www.w3.org/2000/svg"
 width="512.000000pt" height="512.000000pt" viewBox="0 0 512.000000 512.000000"
 preserveAspectRatio="xMidYMid meet">

<g transform="translate(0.000000,512.000000) scale(0.100000,-0.100000)"
fill="#000000" stroke="none">
<path d="M2485 4725 c-16 -8 -104 -83 -194 -168 l-165 -153 -215 43 c-242 49
-280 52 -316 29 -41 -27 -54 -57 -121 -278 -36 -116 -66 -214 -69 -216 -2 -2
-108 -44 -236 -93 -128 -49 -243 -98 -255 -110 -40 -37 -39 -71 11 -318 45
-227 46 -233 28 -254 -10 -12 -70 -78 -133 -147 -179 -193 -180 -195 -180
-240 0 -21 4 -49 9 -62 5 -13 79 -99 165 -192 86 -94 156 -175 156 -180 0 -6
-21 -115 -46 -243 -30 -146 -44 -241 -40 -258 13 -51 56 -81 165 -115 l102
-32 -28 -46 c-208 -353 -452 -777 -449 -780 4 -3 634 -51 684 -52 18 0 46 -35
145 -187 67 -104 154 -237 193 -296 l71 -108 248 416 c136 228 252 418 256
421 5 3 55 -37 110 -88 116 -107 131 -117 179 -117 48 0 65 11 180 118 55 51
104 90 109 87 4 -3 120 -193 256 -422 l248 -415 61 93 c350 536 323 498 358
498 59 1 670 48 674 53 2 2 -104 194 -237 426 -133 232 -240 423 -238 425 2 1
38 15 79 31 82 31 135 75 146 121 5 20 -8 106 -40 267 l-47 238 118 127 c234
253 213 225 213 279 -1 26 -6 58 -13 71 -7 12 -82 97 -165 187 l-153 165 47
234 c28 141 44 245 40 260 -15 61 -52 84 -226 142 -91 30 -195 63 -231 74
l-65 20 -64 212 c-70 236 -80 260 -112 282 -34 24 -85 20 -322 -28 l-218 -44
-162 150 c-88 83 -174 159 -191 169 -35 22 -78 24 -120 4z m225 -440 c82 -86
159 -157 181 -167 36 -18 40 -17 253 24 118 23 218 40 221 37 2 -3 31 -89 63
-191 32 -102 66 -197 75 -212 14 -21 52 -37 225 -92 114 -37 211 -71 216 -75
6 -5 -8 -96 -33 -224 -37 -194 -40 -218 -28 -247 8 -18 67 -92 133 -164 65
-71 127 -140 137 -151 19 -22 18 -23 -113 -165 -73 -79 -141 -161 -151 -184
l-18 -41 39 -204 c22 -112 40 -211 40 -219 0 -12 -52 -31 -197 -74 -109 -32
-208 -64 -220 -72 -33 -21 -45 -49 -108 -259 -31 -104 -58 -191 -59 -193 -2
-1 -93 18 -204 43 -110 25 -217 45 -236 45 -32 0 -49 -11 -134 -89 -53 -49
-124 -116 -157 -150 -33 -34 -66 -61 -73 -61 -8 0 -82 66 -165 146 -84 81
-162 150 -175 155 -40 15 -81 10 -282 -35 -107 -25 -196 -43 -198 -41 -2 2
-30 92 -63 201 -60 201 -75 236 -107 253 -10 5 -107 36 -216 69 -109 33 -199
62 -201 64 -1 1 15 91 36 198 21 107 38 214 39 238 0 47 9 36 -187 248 -57 61
-103 115 -103 119 0 4 62 74 137 156 76 83 146 167 155 188 17 38 17 42 -22
242 -22 112 -40 211 -40 220 0 11 54 33 209 83 145 47 216 75 231 91 14 14 42
93 81 221 32 108 61 199 64 202 2 3 103 -14 223 -37 206 -40 221 -42 253 -27
19 8 99 75 179 150 80 74 147 134 151 133 3 -1 70 -69 149 -152z m1167 -2896
l141 -247 -62 -6 c-33 -3 -117 -8 -186 -11 -202 -9 -173 9 -296 -183 -59 -92
-110 -171 -114 -175 -4 -5 -65 91 -134 213 -70 122 -125 224 -122 227 3 3 77
-11 165 -31 177 -40 209 -43 250 -22 51 27 51 26 172 440 17 57 23 66 33 55 7
-8 76 -125 153 -260z m-2402 46 c62 -215 81 -257 125 -280 42 -22 74 -19 251
21 88 20 162 34 165 31 3 -3 -52 -105 -122 -227 -69 -122 -130 -218 -134 -213
-4 4 -55 83 -114 174 -74 116 -113 169 -129 172 -12 3 -92 9 -177 13 -85 3
-173 9 -195 13 l-41 6 150 253 c82 139 153 249 156 245 4 -4 33 -98 65 -208z"/>
<path d="M2435 3639 c-287 -42 -549 -252 -649 -520 -205 -551 186 -1131 764
-1132 125 0 208 14 311 54 319 123 529 431 529 774 0 314 -176 603 -450 740
-164 82 -330 109 -505 84z m263 -135 c234 -47 438 -225 524 -456 40 -108 50
-264 23 -383 -77 -349 -425 -594 -772 -546 -293 41 -535 263 -598 546 -26 113
-17 275 20 375 65 179 196 326 359 405 149 72 290 91 444 59z"/>
</g>
</svg>
