<?xml version="1.0" standalone="no"?>
<!DOCTYPE svg PUBLIC "-//W3C//DTD SVG 20010904//EN"
 "http://www.w3.org/TR/2001/REC-SVG-20010904/DTD/svg10.dtd">
<svg version="1.0" xmlns="http://www.w3.org/2000/svg"
 width="195.000000pt" height="258.000000pt" viewBox="0 0 195.000000 258.000000"
 preserveAspectRatio="xMidYMid meet">

<g transform="translate(0.000000,258.000000) scale(0.100000,-0.100000)"
fill="#000000" stroke="none">
<path d="M895 2561 c-22 -10 -71 -44 -110 -76 -89 -73 -109 -82 -225 -90 -117
-9 -170 -30 -204 -82 -33 -50 -56 -117 -56 -164 0 -79 -21 -140 -78 -223 -76
-111 -102 -170 -102 -231 0 -64 34 -124 105 -187 59 -53 75 -94 75 -195 1 -99
55 -191 141 -238 44 -24 63 -28 139 -29 l88 -1 71 -50 c39 -27 85 -60 103 -73
72 -51 180 -53 255 -5 23 16 75 51 114 78 l71 50 87 1 c96 0 140 17 199 75 62
61 84 137 92 313 0 4 31 40 70 80 38 39 76 88 85 109 33 80 10 167 -81 294
-60 84 -72 115 -84 219 -12 109 -46 185 -100 220 -30 20 -60 27 -158 38 -132
14 -138 17 -237 99 -104 87 -178 106 -260 68z m169 -346 c28 -3 86 -23 131
-44 173 -84 285 -262 285 -451 0 -321 -298 -564 -612 -499 -204 43 -372 225
-398 430 -29 238 102 457 325 542 52 20 152 36 195 31 14 -2 47 -6 74 -9z"/>
<path d="M1048 1840 c-57 -60 -108 -110 -113 -110 -6 0 -33 23 -60 50 -27 28
-55 50 -61 50 -15 0 -114 -109 -114 -125 0 -6 52 -62 115 -125 l115 -114 47
44 c126 117 313 306 313 315 0 14 -112 125 -126 125 -7 0 -59 -49 -116 -110z"/>
<path d="M156 587 c-119 -231 -146 -290 -146 -324 0 -38 3 -43 27 -50 16 -4
82 3 153 15 146 25 125 35 201 -106 88 -161 123 -161 199 1 26 56 93 187 148
292 l101 189 -42 24 c-23 13 -64 43 -92 66 -47 40 -55 43 -125 49 -94 7 -169
35 -230 86 l-48 41 -146 -283z"/>
<path d="M1625 850 c-55 -61 -180 -110 -278 -110 -43 0 -55 -5 -101 -44 -28
-25 -70 -55 -93 -68 l-42 -24 91 -169 c50 -94 117 -225 150 -293 90 -186 115
-187 218 -2 54 97 65 111 83 107 79 -19 237 -39 260 -34 24 7 27 12 27 49 0
33 -26 92 -137 307 -167 326 -155 307 -178 281z"/>
</g>
</svg>
