<?xml version="1.0" standalone="no"?>
<!DOCTYPE svg PUBLIC "-//W3C//DTD SVG 20010904//EN"
 "http://www.w3.org/TR/2001/REC-SVG-20010904/DTD/svg10.dtd">
<svg version="1.0" xmlns="http://www.w3.org/2000/svg"
 width="200.000000pt" height="200.000000pt" viewBox="0 0 200.000000 200.000000"
 preserveAspectRatio="xMidYMid meet">

<g transform="translate(0.000000,200.000000) scale(0.100000,-0.100000)"
fill="#000000" stroke="none">
<path d="M57 1962 l-27 -28 0 -935 0 -935 28 -27 28 -27 541 0 540 0 132 135
131 135 0 178 0 177 195 195 c156 156 197 192 205 180 21 -33 8 -56 -86 -151
-96 -99 -113 -131 -69 -137 15 -2 50 27 123 101 92 94 102 108 102 141 0 20
-7 53 -15 73 -15 36 -15 37 15 68 20 21 28 37 24 48 -4 10 4 28 20 48 44 52
30 125 -31 154 -39 19 -88 8 -117 -24 -11 -12 -25 -17 -38 -13 -16 4 -52 -28
-174 -149 l-154 -154 0 458 0 459 -29 29 -29 29 -644 0 -644 0 -27 -28z m1301
-44 c9 -9 12 -131 12 -487 l0 -476 -159 -160 -159 -160 -31 -95 c-37 -115 -38
-125 -6 -146 23 -15 30 -14 122 16 91 30 103 37 166 99 l68 66 -3 -125 -3
-125 -109 -3 c-61 -1 -116 -8 -123 -14 -9 -7 -13 -43 -13 -124 l0 -114 -512 2
-513 3 -3 915 c-1 503 0 921 3 928 6 17 1245 18 1263 0z m550 -644 c2 -11 -6
-28 -18 -39 -20 -18 -21 -18 -45 5 -24 22 -24 24 -8 42 23 25 67 20 71 -8z
m-105 -82 l47 -48 -40 -39 -40 -39 -50 49 -50 49 37 38 c20 21 40 38 43 38 3
0 27 -22 53 -48z m-328 -422 l-250 -250 -50 50 -50 50 250 250 250 250 50 -50
50 -50 -250 -250z m-315 -280 c0 -3 -22 -13 -50 -22 -27 -9 -50 -13 -50 -9 0
4 7 29 16 55 l16 48 34 -33 c19 -18 34 -36 34 -39z m160 -233 c0 -1 -31 -34
-70 -72 l-70 -69 0 72 0 72 70 0 c39 0 70 -1 70 -3z"/>
<path d="M293 1553 c-20 -7 -15 -41 7 -53 13 -7 156 -10 439 -8 441 3 460 5
435 46 -10 16 -46 17 -440 19 -236 1 -435 -1 -441 -4z"/>
<path d="M292 1351 c-8 -5 -12 -17 -10 -27 3 -18 22 -19 446 -22 389 -2 443 0
448 13 4 8 1 22 -6 30 -11 13 -74 15 -439 15 -234 0 -432 -4 -439 -9z"/>
<path d="M292 1151 c-8 -5 -12 -17 -10 -27 3 -18 22 -19 446 -22 389 -2 443 0
448 13 4 8 1 22 -6 30 -11 13 -74 15 -439 15 -234 0 -432 -4 -439 -9z"/>
<path d="M292 951 c-8 -5 -12 -17 -10 -27 3 -18 22 -19 446 -22 389 -2 443 0
448 13 4 8 1 22 -6 30 -11 13 -74 15 -439 15 -234 0 -432 -4 -439 -9z"/>
<path d="M744 531 c-23 -11 -60 -35 -82 -55 -21 -20 -41 -36 -44 -36 -2 0 -3
14 0 30 6 42 -14 63 -52 56 -35 -7 -255 -95 -273 -109 -18 -13 -16 -44 3 -51
8 -3 70 17 136 44 l120 50 -6 -30 c-3 -17 -1 -41 4 -55 16 -41 52 -32 126 31
66 56 110 82 120 72 3 -3 10 -27 17 -54 9 -38 18 -51 39 -58 19 -7 31 -6 42 4
22 17 20 51 -3 57 -13 3 -21 17 -25 43 -4 25 -15 46 -32 59 -32 25 -38 26 -90
2z"/>
</g>
</svg>
